<svg xmlns="http://www.w3.org/2000/svg" x="0px" y="0px"
width="60" height="60"
viewBox="0 0 172 172"
style=" fill:#000000;"><g fill="none" fill-rule="nonzero" stroke="none" stroke-width="1" stroke-linecap="butt" stroke-linejoin="miter" stroke-miterlimit="10" stroke-dasharray="" stroke-dashoffset="0" font-family="none" font-weight="none" font-size="none" text-anchor="none" style="mix-blend-mode: normal"><path d="M0,172v-172h172v172z" fill="none"></path><g><path d="M169.13333,65.93333v71.66667c0,4.74965 -3.85035,8.6 -8.6,8.6h-149.06667c-4.74965,0 -8.6,-3.85035 -8.6,-8.6v-71.66667z" fill="#444444"></path><path d="M169.13333,34.4v31.53333c0,7.91608 -6.41725,14.33333 -14.33333,14.33333h-137.6c-7.91608,0 -14.33333,-6.41725 -14.33333,-14.33333v-31.53333c0,-4.74965 3.85035,-8.6 8.6,-8.6h149.06667c4.74965,0 8.6,3.85035 8.6,8.6z" fill="#555555"></path><path d="M117.53333,54.46667v16.168c0.04282,13.32876 -7.99194,25.35539 -20.3218,30.4182c-1.21127,0.4508 -1.96373,1.66441 -1.82893,2.9498l5.78207,48.04533c0.70267,5.85182 -2.02434,11.58576 -7.00716,14.73362c-4.98282,3.14786 -11.3322,3.14786 -16.31502,0c-4.98282,-3.14786 -7.70982,-8.8818 -7.00716,-14.73362l5.7792,-47.95933c0.13962,-1.29932 -0.62967,-2.52497 -1.86047,-2.96413c-12.21599,-4.66331 -20.2866,-16.38206 -20.2874,-29.45787v-17.2c0,-7.91608 6.41725,-14.33333 14.33333,-14.33333c3.15668,0.02341 5.70992,2.57665 5.73333,5.73333v20.06667c0.01889,6.32502 5.14164,11.44778 11.46667,11.46667v0c6.32502,-0.01889 11.44778,-5.14164 11.46667,-11.46667v-20.06667c-0.01994,-3.09914 2.44042,-5.6461 5.5384,-5.73333c3.83833,-0.06315 7.54071,1.42034 10.27346,4.11642c2.73274,2.69608 4.26611,6.37809 4.25481,10.21692z" fill="#c4ddf0"></path><path d="M160.53333,22.93333h-40.13333v-11.46667c0,-6.33287 -5.1338,-11.46667 -11.46667,-11.46667h-45.86667c-6.33287,0 -11.46667,5.1338 -11.46667,11.46667v11.46667h-17.2c-1.58322,0 -2.86667,1.28345 -2.86667,2.86667c0,1.58322 1.28345,2.86667 2.86667,2.86667h126.13333c3.16643,0 5.73333,2.5669 5.73333,5.73333v31.53333c0,6.33287 -5.1338,11.46667 -11.46667,11.46667h-35.0708c0.43768,-2.22873 0.66229,-4.49405 0.6708,-6.76533v-16.168c0.01137,-4.60612 -1.82953,-9.02342 -5.10859,-12.25827c-3.27906,-3.23485 -7.72094,-5.01561 -12.32648,-4.94173c-4.66286,0.11534 -8.37883,3.93573 -8.36493,8.6v20.06667c0,4.74965 -3.85035,8.6 -8.6,8.6c-4.74965,0 -8.6,-3.85035 -8.6,-8.6v-20.06667c-0.02041,-4.74117 -3.85883,-8.57959 -8.6,-8.6c-9.49537,0.00948 -17.19052,7.70463 -17.2,17.2v17.2c0.00582,1.92194 0.17461,3.83992 0.50453,5.73333h-34.90453c-6.33287,0 -11.46667,-5.1338 -11.46667,-11.46667v-31.53333c0,-3.16643 2.5669,-5.73333 5.73333,-5.73333h11.46667c1.58322,0 2.86667,-1.28345 2.86667,-2.86667c0,-1.58322 -1.28345,-2.86667 -2.86667,-2.86667h-11.46667c-6.33287,0 -11.46667,5.1338 -11.46667,11.46667v103.2c0,6.33287 5.1338,11.46667 11.46667,11.46667h56.84027l-0.3182,2.6402c-0.83324,6.94952 2.40598,13.75843 8.32359,17.49635c5.91761,3.73792 13.45775,3.73792 19.37535,0c5.91761,-3.73792 9.15683,-10.54683 8.32359,-17.49635l-0.31533,-2.6402h56.8374c6.33287,0 11.46667,-5.1338 11.46667,-11.46667v-103.2c0,-6.33287 -5.1338,-11.46667 -11.46667,-11.46667zM57.33333,11.46667c0,-3.16643 2.5669,-5.73333 5.73333,-5.73333h45.86667c3.16643,0 5.73333,2.5669 5.73333,5.73333v11.46667h-57.33333zM11.46667,143.33333c-3.16643,0 -5.73333,-2.5669 -5.73333,-5.73333v-58.88133c3.14383,2.84046 7.2297,4.41352 11.46667,4.41467h36.40667c3.37429,9.48765 10.73628,17.02041 20.14407,20.61133l-4.75293,39.58867zM95.2794,162.0928c-3.5969,4.06677 -9.42056,5.32178 -14.3732,3.09746c-4.95264,-2.22432 -7.88322,-7.41102 -7.23286,-12.80113l5.77633,-47.95073c0.29786,-2.60601 -1.2197,-5.07929 -3.67793,-5.9942c-11.14072,-4.19224 -18.49614,-14.87429 -18.4384,-26.77753v-17.2c0,-6.33287 5.1338,-11.46667 11.46667,-11.46667c0.77326,-0.00261 1.51311,0.31492 2.04393,0.8772c0.53163,0.52486 0.82837,1.24242 0.82273,1.98947v20.06667c0,7.91608 6.41725,14.33333 14.33333,14.33333c7.91608,0 14.33333,-6.41725 14.33333,-14.33333v-20.06667c-0.02613,-1.53298 1.17699,-2.80612 2.709,-2.86667c3.09835,-0.08017 6.09147,1.12683 8.26747,3.33393c2.15263,2.15885 3.36004,5.08405 3.35687,8.13273v16.168c0.04191,12.1524 -7.27436,23.12171 -18.51007,27.7522c-2.41628,0.93898 -3.9019,3.38248 -3.62347,5.9598l5.79353,48.04247c0.41802,3.52144 -0.69113,7.0534 -3.04727,9.70367zM160.53333,143.33333h-57.52253l-4.74433,-39.61447c9.23215,-3.74722 16.44797,-11.22546 19.86313,-20.58553h36.6704c4.23697,-0.00115 8.32284,-1.57421 11.46667,-4.41467v58.88133c0,3.16643 -2.5669,5.73333 -5.73333,5.73333z" fill="#ffffff"></path><path d="M20.06667,68.8c0,1.58322 1.28345,2.86667 2.86667,2.86667h5.73333c1.58322,0 2.86667,-1.28345 2.86667,-2.86667c0,-1.58322 -1.28345,-2.86667 -2.86667,-2.86667h-5.73333c-1.58322,0 -2.86667,1.28345 -2.86667,2.86667z" fill="#ffffff"></path><path d="M17.2,43c0,-1.58322 -1.28345,-2.86667 -2.86667,-2.86667c-1.58322,0 -2.86667,1.28345 -2.86667,2.86667v2.86667c0,1.58322 1.28345,2.86667 2.86667,2.86667c1.58322,0 2.86667,-1.28345 2.86667,-2.86667z" fill="#ffffff"></path><path d="M14.33333,54.46667c-1.58322,0 -2.86667,1.28345 -2.86667,2.86667v2.86667c0,1.58322 1.28345,2.86667 2.86667,2.86667c1.58322,0 2.86667,-1.28345 2.86667,-2.86667v-2.86667c0,-1.58322 -1.28345,-2.86667 -2.86667,-2.86667z" fill="#ffffff"></path><path d="M149.06667,71.66667c1.58322,0 2.86667,-1.28345 2.86667,-2.86667c0,-1.58322 -1.28345,-2.86667 -2.86667,-2.86667h-5.73333c-1.58322,0 -2.86667,1.28345 -2.86667,2.86667c0,1.58322 1.28345,2.86667 2.86667,2.86667z" fill="#ffffff"></path><path d="M157.66667,48.73333c1.58322,0 2.86667,-1.28345 2.86667,-2.86667v-2.86667c0,-1.58322 -1.28345,-2.86667 -2.86667,-2.86667c-1.58322,0 -2.86667,1.28345 -2.86667,2.86667v2.86667c0,1.58322 1.28345,2.86667 2.86667,2.86667z" fill="#ffffff"></path><path d="M154.8,60.2c0,1.58322 1.28345,2.86667 2.86667,2.86667c1.58322,0 2.86667,-1.28345 2.86667,-2.86667v-2.86667c0,-1.58322 -1.28345,-2.86667 -2.86667,-2.86667c-1.58322,0 -2.86667,1.28345 -2.86667,2.86667z" fill="#ffffff"></path><path d="M45.86667,131.86667h-5.73333c-1.58322,0 -2.86667,1.28345 -2.86667,2.86667c0,1.58322 1.28345,2.86667 2.86667,2.86667h5.73333c1.58322,0 2.86667,-1.28345 2.86667,-2.86667c0,-1.58322 -1.28345,-2.86667 -2.86667,-2.86667z" fill="#ffffff"></path><path d="M28.66667,131.86667h-5.73333c-1.58322,0 -2.86667,1.28345 -2.86667,2.86667c0,1.58322 1.28345,2.86667 2.86667,2.86667h5.73333c1.58322,0 2.86667,-1.28345 2.86667,-2.86667c0,-1.58322 -1.28345,-2.86667 -2.86667,-2.86667z" fill="#ffffff"></path><path d="M14.33333,106.06667c-1.58322,0 -2.86667,1.28345 -2.86667,2.86667v2.86667c0,1.58322 1.28345,2.86667 2.86667,2.86667c1.58322,0 2.86667,-1.28345 2.86667,-2.86667v-2.86667c0,-1.58322 -1.28345,-2.86667 -2.86667,-2.86667z" fill="#ffffff"></path><path d="M14.33333,120.4c-1.58322,0 -2.86667,1.28345 -2.86667,2.86667v2.86667c0,1.58322 1.28345,2.86667 2.86667,2.86667c1.58322,0 2.86667,-1.28345 2.86667,-2.86667v-2.86667c0,-1.58322 -1.28345,-2.86667 -2.86667,-2.86667z" fill="#ffffff"></path><path d="M131.86667,131.86667h-5.73333c-1.58322,0 -2.86667,1.28345 -2.86667,2.86667c0,1.58322 1.28345,2.86667 2.86667,2.86667h5.73333c1.58322,0 2.86667,-1.28345 2.86667,-2.86667c0,-1.58322 -1.28345,-2.86667 -2.86667,-2.86667z" fill="#ffffff"></path><path d="M149.06667,131.86667h-5.73333c-1.58322,0 -2.86667,1.28345 -2.86667,2.86667c0,1.58322 1.28345,2.86667 2.86667,2.86667h5.73333c1.58322,0 2.86667,-1.28345 2.86667,-2.86667c0,-1.58322 -1.28345,-2.86667 -2.86667,-2.86667z" fill="#ffffff"></path><path d="M157.66667,106.06667c-1.58322,0 -2.86667,1.28345 -2.86667,2.86667v2.86667c0,1.58322 1.28345,2.86667 2.86667,2.86667c1.58322,0 2.86667,-1.28345 2.86667,-2.86667v-2.86667c0,-1.58322 -1.28345,-2.86667 -2.86667,-2.86667z" fill="#ffffff"></path><path d="M14.33333,91.73333c-1.58322,0 -2.86667,1.28345 -2.86667,2.86667v2.86667c0,1.58322 1.28345,2.86667 2.86667,2.86667c1.58322,0 2.86667,-1.28345 2.86667,-2.86667v-2.86667c0,-1.58322 -1.28345,-2.86667 -2.86667,-2.86667z" fill="#ffffff"></path><path d="M157.66667,91.73333c-1.58322,0 -2.86667,1.28345 -2.86667,2.86667v2.86667c0,1.58322 1.28345,2.86667 2.86667,2.86667c1.58322,0 2.86667,-1.28345 2.86667,-2.86667v-2.86667c0,-1.58322 -1.28345,-2.86667 -2.86667,-2.86667z" fill="#ffffff"></path><path d="M157.66667,120.4c-1.58322,0 -2.86667,1.28345 -2.86667,2.86667v2.86667c0,1.58322 1.28345,2.86667 2.86667,2.86667c1.58322,0 2.86667,-1.28345 2.86667,-2.86667v-2.86667c0,-1.58322 -1.28345,-2.86667 -2.86667,-2.86667z" fill="#ffffff"></path><path d="M86,149.06667c-1.58322,0 -2.86667,1.28345 -2.86667,2.86667v2.86667c0,1.58322 1.28345,2.86667 2.86667,2.86667c1.58322,0 2.86667,-1.28345 2.86667,-2.86667v-2.86667c0,-1.58322 -1.28345,-2.86667 -2.86667,-2.86667z" fill="#ffffff"></path></g></g></svg>